<?xml version="1.0" standalone="no"?>
<!DOCTYPE svg PUBLIC "-//W3C//DTD SVG 20010904//EN"
 "http://www.w3.org/TR/2001/REC-SVG-20010904/DTD/svg10.dtd">
<svg version="1.0" xmlns="http://www.w3.org/2000/svg"
 width="165.000000pt" height="300.000000pt" viewBox="0 0 165.000000 300.000000"
 preserveAspectRatio="xMidYMid meet">

<g transform="translate(0.000000,300.000000) scale(0.100000,-0.100000)"
fill="#000000" stroke="none">
<path d="M708 2984 c-311 -56 -560 -274 -656 -574 -123 -380 39 -792 398
-1013 130 -80 223 -108 376 -114 190 -9 346 32 496 129 78 51 198 166 239 230
41 64 79 173 78 228 l0 45 -23 -56 c-36 -86 -116 -205 -116 -172 0 5 5 14 11
20 18 18 68 244 75 339 9 129 -6 149 -35 48 -33 -113 -121 -282 -121 -232 0 7
-15 -10 -34 -37 -76 -114 -227 -226 -358 -267 -113 -35 -264 -30 -351 10 -23
11 -73 35 -111 52 -140 65 -259 225 -300 400 -20 83 -20 229 -1 305 27 106
103 243 175 316 168 170 436 215 669 113 113 -50 239 -163 288 -258 10 -19 18
-26 21 -18 6 19 -60 112 -118 166 -64 60 -143 109 -243 152 -45 19 -85 41 -89
47 -5 8 -45 12 -125 12 -119 0 -241 -24 -317 -62 -21 -11 -27 -12 -24 -2 6 19
106 66 179 86 39 10 104 17 166 17 57 1 103 2 103 3 0 1 -15 7 -32 12 -30 10
-29 10 12 5 112 -13 225 -56 359 -134 76 -43 176 -159 237 -274 19 -33 34 -54
34 -46 0 8 -16 44 -35 78 -18 35 -31 70 -28 78 7 19 -198 222 -260 258 -66 39
-193 83 -306 106 -114 23 -128 23 -233 4z m784 -358 c6 -10 -21 14 -58 54 -38
40 -70 77 -72 84 -4 15 117 -113 130 -138z"/>
<path d="M1441 2440 c-1 -3 8 -27 19 -55 10 -27 19 -43 19 -35 0 14 -36 101
-38 90z"/>
<path d="M385 1010 c-17 -27 -99 -506 -89 -522 3 -4 28 -8 55 -8 59 0 63 6 73
124 4 44 11 86 15 94 10 17 23 -2 85 -126 62 -123 70 -122 135 6 77 152 76
151 90 44 17 -136 20 -142 80 -142 27 0 52 4 55 8 3 5 -14 123 -37 263 -54
323 -49 320 -165 104 -46 -85 -87 -155 -92 -155 -4 0 -45 70 -91 155 -78 146
-101 177 -114 155z m45 -100 c0 -5 -5 -10 -11 -10 -5 0 -7 5 -4 10 3 6 8 10
11 10 2 0 4 -4 4 -10z m-59 -223 c-6 -8 -9 -17 -6 -21 3 -3 0 -2 -6 3 -12 10
-4 31 13 31 7 0 7 -4 -1 -13z m-1 -83 c0 -8 6 -14 14 -14 10 0 11 -7 2 -34 -6
-19 -14 -30 -17 -24 -4 6 -12 7 -18 4 -7 -5 -11 3 -11 23 0 16 4 32 10 36 5 3
6 13 3 22 -4 11 -3 14 5 9 7 -4 12 -14 12 -22z m474 -73 c3 -4 3 -11 0 -14 -8
-8 -34 3 -34 14 0 11 27 12 34 0z"/>
<path d="M1020 745 l0 -266 153 3 152 3 0 50 0 50 -95 5 -95 5 -3 208 -2 207
-55 0 -55 0 0 -265z m55 85 c3 -5 1 -10 -4 -10 -6 0 -11 5 -11 10 0 6 2 10 4
10 3 0 8 -4 11 -10z"/>
<path d="M830 974 c0 -5 18 -114 40 -243 27 -163 36 -239 30 -252 -7 -12 -25
-19 -53 -22 -36 -3 -34 -4 16 -5 56 -2 57 -2 57 26 0 36 -77 493 -84 500 -4 3
-6 1 -6 -4z"/>
<path d="M1164 800 c0 -102 2 -143 3 -92 2 50 2 134 0 185 -1 50 -3 9 -3 -93z"/>
<path d="M685 571 c-22 -45 -47 -89 -57 -98 -20 -18 -15 -35 7 -27 20 8 97
161 93 186 -2 14 -15 -5 -43 -61z"/>
<path d="M450 612 c0 -53 -21 -136 -38 -150 -15 -12 -14 -13 8 -10 23 3 26 9
37 88 7 53 8 89 2 95 -5 5 -9 -3 -9 -23z"/>
<path d="M1350 527 c0 -62 -10 -66 -160 -70 l-135 -3 153 -2 152 -2 0 55 c0
30 -2 55 -5 55 -3 0 -5 -15 -5 -33z"/>
<path d="M592 138 l3 -133 50 3 c76 5 85 18 85 129 0 115 -12 133 -90 133
l-51 0 3 -132z m89 12 c6 -88 3 -100 -22 -100 -17 0 -19 8 -19 91 0 81 2 90
18 87 14 -3 18 -17 23 -78z"/>
<path d="M786 176 c-37 -36 -37 -116 -1 -151 13 -14 34 -25 45 -25 22 0 70 41
70 60 0 22 -31 22 -51 1 -22 -24 -39 -20 -39 9 0 15 9 19 43 22 37 3 42 6 45
29 4 32 -24 66 -60 75 -21 4 -33 0 -52 -20z m64 -36 c0 -5 -9 -10 -20 -10 -11
0 -20 5 -20 10 0 6 9 10 20 10 11 0 20 -4 20 -10z"/>
<path d="M928 194 c-8 -7 38 -174 51 -187 21 -21 38 4 59 85 27 101 27 108 3
108 -20 0 -24 -8 -36 -68 -8 -38 -25 -33 -25 8 0 38 -34 73 -52 54z"/>
</g>
</svg>
