<?xml version="1.0" encoding="UTF-8"?>
<svg xmlns="http://www.w3.org/2000/svg" xmlns:xlink="http://www.w3.org/1999/xlink" width="17pt" height="30pt" viewBox="0 0 17 30" version="1.1">
<g id="surface1">
<path style=" stroke:none;fill-rule:nonzero;fill:rgb(0%,0%,0%);fill-opacity:1;" d="M 7.304688 0.160156 C 4.09375 0.71875 1.527344 2.898438 0.535156 5.898438 C -0.730469 9.699219 0.9375 13.820312 4.640625 16.03125 C 5.984375 16.828125 6.941406 17.109375 8.519531 17.171875 C 10.480469 17.261719 12.089844 16.851562 13.636719 15.878906 C 14.441406 15.371094 15.679688 14.21875 16.101562 13.578125 C 16.527344 12.941406 16.917969 11.851562 16.90625 11.300781 L 16.90625 10.851562 L 16.667969 11.410156 C 16.296875 12.269531 15.472656 13.460938 15.472656 13.128906 C 15.472656 13.078125 15.523438 12.988281 15.585938 12.929688 C 15.773438 12.75 16.289062 10.488281 16.359375 9.539062 C 16.453125 8.25 16.296875 8.050781 16 9.058594 C 15.660156 10.191406 14.75 11.878906 14.75 11.378906 C 14.75 11.308594 14.597656 11.480469 14.402344 11.75 C 13.617188 12.890625 12.058594 14.011719 10.707031 14.421875 C 9.542969 14.769531 7.984375 14.71875 7.085938 14.320312 C 6.847656 14.210938 6.332031 13.96875 5.941406 13.800781 C 4.496094 13.148438 3.269531 11.550781 2.847656 9.800781 C 2.640625 8.96875 2.640625 7.511719 2.835938 6.75 C 3.117188 5.691406 3.898438 4.320312 4.640625 3.589844 C 6.375 1.890625 9.140625 1.441406 11.542969 2.460938 C 12.707031 2.960938 14.007812 4.089844 14.515625 5.039062 C 14.617188 5.230469 14.699219 5.300781 14.730469 5.21875 C 14.792969 5.03125 14.113281 4.101562 13.511719 3.558594 C 12.851562 2.960938 12.039062 2.46875 11.007812 2.039062 C 10.542969 1.851562 10.128906 1.628906 10.089844 1.570312 C 10.035156 1.488281 9.625 1.449219 8.800781 1.449219 C 7.570312 1.449219 6.3125 1.691406 5.527344 2.070312 C 5.3125 2.179688 5.25 2.191406 5.28125 2.089844 C 5.34375 1.898438 6.375 1.429688 7.128906 1.230469 C 7.53125 1.128906 8.199219 1.058594 8.839844 1.058594 C 9.429688 1.050781 9.902344 1.039062 9.902344 1.03125 C 9.902344 1.019531 9.75 0.960938 9.574219 0.910156 C 9.261719 0.808594 9.273438 0.808594 9.695312 0.859375 C 10.851562 0.988281 12.019531 1.421875 13.398438 2.199219 C 14.183594 2.628906 15.214844 3.789062 15.84375 4.941406 C 16.039062 5.269531 16.195312 5.480469 16.195312 5.398438 C 16.195312 5.320312 16.03125 4.960938 15.835938 4.621094 C 15.648438 4.269531 15.515625 3.921875 15.546875 3.839844 C 15.617188 3.648438 13.503906 1.621094 12.863281 1.261719 C 12.183594 0.871094 10.871094 0.429688 9.707031 0.199219 C 8.53125 -0.03125 8.386719 -0.03125 7.304688 0.160156 Z M 15.390625 3.738281 C 15.453125 3.839844 15.175781 3.601562 14.792969 3.199219 C 14.402344 2.800781 14.070312 2.429688 14.050781 2.359375 C 14.007812 2.210938 15.257812 3.488281 15.390625 3.738281 Z M 15.390625 3.738281 "/>
<path style=" stroke:none;fill-rule:nonzero;fill:rgb(0%,0%,0%);fill-opacity:1;" d="M 14.863281 5.601562 C 14.855469 5.628906 14.945312 5.871094 15.0625 6.148438 C 15.164062 6.421875 15.257812 6.578125 15.257812 6.5 C 15.257812 6.359375 14.886719 5.488281 14.863281 5.601562 Z M 14.863281 5.601562 "/>
<path style=" stroke:none;fill-rule:nonzero;fill:rgb(0%,0%,0%);fill-opacity:1;" d="M 3.972656 19.898438 C 3.796875 20.171875 2.949219 24.960938 3.054688 25.121094 C 3.085938 25.160156 3.34375 25.199219 3.621094 25.199219 C 4.230469 25.199219 4.269531 25.140625 4.375 23.960938 C 4.414062 23.519531 4.488281 23.101562 4.527344 23.019531 C 4.632812 22.851562 4.765625 23.039062 5.40625 24.28125 C 6.042969 25.511719 6.128906 25.5 6.796875 24.21875 C 7.59375 22.699219 7.582031 22.710938 7.726562 23.78125 C 7.902344 25.140625 7.933594 25.199219 8.550781 25.199219 C 8.832031 25.199219 9.089844 25.160156 9.117188 25.121094 C 9.148438 25.070312 8.972656 23.890625 8.738281 22.488281 C 8.179688 19.261719 8.230469 19.289062 7.035156 21.449219 C 6.5625 22.300781 6.136719 23 6.085938 23 C 6.042969 23 5.621094 22.300781 5.148438 21.449219 C 4.34375 19.988281 4.105469 19.679688 3.972656 19.898438 Z M 4.4375 20.898438 C 4.4375 20.949219 4.382812 21 4.320312 21 C 4.269531 21 4.25 20.949219 4.28125 20.898438 C 4.3125 20.839844 4.363281 20.800781 4.394531 20.800781 C 4.414062 20.800781 4.4375 20.839844 4.4375 20.898438 Z M 3.828125 23.128906 C 3.765625 23.210938 3.734375 23.300781 3.765625 23.339844 C 3.796875 23.371094 3.765625 23.359375 3.703125 23.308594 C 3.578125 23.210938 3.660156 23 3.835938 23 C 3.910156 23 3.910156 23.039062 3.828125 23.128906 Z M 3.816406 23.960938 C 3.816406 24.039062 3.878906 24.101562 3.960938 24.101562 C 4.0625 24.101562 4.074219 24.171875 3.980469 24.441406 C 3.917969 24.628906 3.835938 24.738281 3.804688 24.679688 C 3.765625 24.621094 3.683594 24.609375 3.621094 24.640625 C 3.546875 24.691406 3.507812 24.609375 3.507812 24.410156 C 3.507812 24.25 3.546875 24.089844 3.609375 24.050781 C 3.660156 24.019531 3.671875 23.921875 3.640625 23.828125 C 3.601562 23.71875 3.609375 23.691406 3.691406 23.738281 C 3.765625 23.78125 3.816406 23.878906 3.816406 23.960938 Z M 8.707031 24.691406 C 8.738281 24.730469 8.738281 24.800781 8.707031 24.828125 C 8.625 24.910156 8.355469 24.800781 8.355469 24.691406 C 8.355469 24.578125 8.632812 24.570312 8.707031 24.691406 Z M 8.707031 24.691406 "/>
<path style=" stroke:none;fill-rule:nonzero;fill:rgb(0%,0%,0%);fill-opacity:1;" d="M 10.523438 22.550781 L 10.523438 25.210938 L 12.101562 25.179688 L 13.667969 25.148438 L 13.667969 24.148438 L 12.6875 24.101562 L 11.707031 24.050781 L 11.675781 21.96875 L 11.65625 19.898438 L 10.523438 19.898438 Z M 11.089844 21.699219 C 11.121094 21.75 11.097656 21.800781 11.046875 21.800781 C 10.984375 21.800781 10.933594 21.75 10.933594 21.699219 C 10.933594 21.640625 10.957031 21.601562 10.976562 21.601562 C 11.007812 21.601562 11.058594 21.640625 11.089844 21.699219 Z M 11.089844 21.699219 "/>
<path style=" stroke:none;fill-rule:nonzero;fill:rgb(0%,0%,0%);fill-opacity:1;" d="M 8.5625 20.261719 C 8.5625 20.308594 8.746094 21.398438 8.972656 22.691406 C 9.253906 24.320312 9.347656 25.078125 9.285156 25.210938 C 9.210938 25.328125 9.027344 25.398438 8.738281 25.429688 C 8.367188 25.460938 8.386719 25.46875 8.902344 25.480469 C 9.480469 25.5 9.492188 25.5 9.492188 25.21875 C 9.492188 24.859375 8.695312 20.289062 8.625 20.21875 C 8.582031 20.191406 8.5625 20.210938 8.5625 20.261719 Z M 8.5625 20.261719 "/>
<path style=" stroke:none;fill-rule:nonzero;fill:rgb(0%,0%,0%);fill-opacity:1;" d="M 12.007812 22 C 12.007812 23.019531 12.027344 23.429688 12.039062 22.921875 C 12.058594 22.421875 12.058594 21.578125 12.039062 21.070312 C 12.027344 20.570312 12.007812 20.980469 12.007812 22 Z M 12.007812 22 "/>
<path style=" stroke:none;fill-rule:nonzero;fill:rgb(0%,0%,0%);fill-opacity:1;" d="M 7.066406 24.289062 C 6.839844 24.738281 6.582031 25.179688 6.476562 25.269531 C 6.273438 25.449219 6.324219 25.621094 6.550781 25.539062 C 6.757812 25.460938 7.550781 23.929688 7.507812 23.679688 C 7.488281 23.539062 7.355469 23.730469 7.066406 24.289062 Z M 7.066406 24.289062 "/>
<path style=" stroke:none;fill-rule:nonzero;fill:rgb(0%,0%,0%);fill-opacity:1;" d="M 4.640625 23.878906 C 4.640625 24.410156 4.425781 25.238281 4.25 25.378906 C 4.09375 25.5 4.105469 25.511719 4.332031 25.480469 C 4.570312 25.449219 4.601562 25.390625 4.714844 24.601562 C 4.785156 24.070312 4.796875 23.710938 4.734375 23.648438 C 4.683594 23.601562 4.640625 23.679688 4.640625 23.878906 Z M 4.640625 23.878906 "/>
<path style=" stroke:none;fill-rule:nonzero;fill:rgb(0%,0%,0%);fill-opacity:1;" d="M 13.925781 24.730469 C 13.925781 25.351562 13.824219 25.390625 12.277344 25.429688 L 10.882812 25.460938 L 12.460938 25.480469 L 14.027344 25.5 L 14.027344 24.949219 C 14.027344 24.648438 14.007812 24.398438 13.976562 24.398438 C 13.945312 24.398438 13.925781 24.550781 13.925781 24.730469 Z M 13.925781 24.730469 "/>
<path style=" stroke:none;fill-rule:nonzero;fill:rgb(0%,0%,0%);fill-opacity:1;" d="M 6.105469 28.621094 L 6.136719 29.949219 L 6.652344 29.921875 C 7.4375 29.871094 7.53125 29.738281 7.53125 28.628906 C 7.53125 27.480469 7.40625 27.300781 6.601562 27.300781 L 6.074219 27.300781 Z M 7.023438 28.5 C 7.085938 29.378906 7.054688 29.5 6.796875 29.5 C 6.621094 29.5 6.601562 29.421875 6.601562 28.589844 C 6.601562 27.78125 6.621094 27.691406 6.789062 27.71875 C 6.933594 27.75 6.972656 27.890625 7.023438 28.5 Z M 7.023438 28.5 "/>
<path style=" stroke:none;fill-rule:nonzero;fill:rgb(0%,0%,0%);fill-opacity:1;" d="M 8.109375 28.238281 C 7.726562 28.601562 7.726562 29.398438 8.097656 29.75 C 8.230469 29.890625 8.449219 30 8.5625 30 C 8.789062 30 9.285156 29.589844 9.285156 29.398438 C 9.285156 29.179688 8.964844 29.179688 8.757812 29.390625 C 8.53125 29.628906 8.355469 29.589844 8.355469 29.300781 C 8.355469 29.148438 8.449219 29.109375 8.800781 29.078125 C 9.179688 29.050781 9.230469 29.019531 9.261719 28.789062 C 9.304688 28.46875 9.015625 28.128906 8.644531 28.039062 C 8.429688 28 8.304688 28.039062 8.109375 28.238281 Z M 8.769531 28.601562 C 8.769531 28.648438 8.675781 28.699219 8.5625 28.699219 C 8.449219 28.699219 8.355469 28.648438 8.355469 28.601562 C 8.355469 28.539062 8.449219 28.5 8.5625 28.5 C 8.675781 28.5 8.769531 28.539062 8.769531 28.601562 Z M 8.769531 28.601562 "/>
<path style=" stroke:none;fill-rule:nonzero;fill:rgb(0%,0%,0%);fill-opacity:1;" d="M 9.574219 28.058594 C 9.492188 28.128906 9.964844 29.800781 10.097656 29.929688 C 10.316406 30.140625 10.492188 29.890625 10.707031 29.078125 C 10.984375 28.070312 10.984375 28 10.738281 28 C 10.53125 28 10.492188 28.078125 10.367188 28.679688 C 10.285156 29.058594 10.109375 29.011719 10.109375 28.601562 C 10.109375 28.21875 9.757812 27.871094 9.574219 28.058594 Z M 9.574219 28.058594 "/>
</g>
</svg>
